<?xml version="1.0" standalone="no"?>
<!DOCTYPE svg PUBLIC "-//W3C//DTD SVG 20010904//EN"
 "http://www.w3.org/TR/2001/REC-SVG-20010904/DTD/svg10.dtd">
<svg version="1.0" xmlns="http://www.w3.org/2000/svg"
 width="512.000000pt" height="512.000000pt" viewBox="0 0 512.000000 512.000000"
 preserveAspectRatio="xMidYMid meet">
<metadata>
Created by potrace 1.14, written by Peter Selinger 2001-2017
</metadata>
<g transform="translate(0.000000,512.000000) scale(0.100000,-0.100000)"
fill="#000000" stroke="none">
<path d="M2308 5115 c-1 -2 -28 -6 -58 -10 -30 -3 -63 -8 -72 -11 -9 -3 -26
-7 -37 -9 -12 -3 -30 -7 -41 -10 -11 -3 -28 -7 -37 -9 -21 -5 -79 -28 -140
-57 -24 -10 -47 -19 -53 -19 -5 0 -10 -5 -10 -12 0 -6 -3 -9 -6 -5 -6 6 -89
-36 -116 -61 -10 -8 -18 -12 -18 -9 0 4 -8 0 -17 -8 -59 -51 -77 -65 -85 -65
-4 0 -258 -250 -564 -555 -306 -305 -560 -555 -565 -555 -4 0 -25 11 -45 25
-37 25 -58 29 -124 26 -48 -3 -77 -24 -188 -132 -126 -125 -155 -194 -118
-284 19 -46 627 -653 681 -680 54 -28 125 -24 176 9 44 30 199 182 199 196 0
6 7 13 15 16 8 4 13 10 10 14 -3 5 -1 11 5 15 6 4 8 11 5 16 -4 5 -2 9 4 9 5
0 8 11 6 25 -1 14 2 25 7 25 5 0 6 4 3 10 -7 11 -16 47 -17 68 -1 6 -5 12 -10
12 -4 0 -8 7 -8 15 0 8 -4 15 -10 15 -5 0 -10 7 -10 16 0 8 -4 13 -9 10 -5 -4
-7 2 -5 12 3 9 27 33 54 52 27 19 49 38 50 43 0 4 8 7 17 7 9 0 24 6 32 14 18
16 130 48 143 40 4 -3 16 0 27 6 11 5 22 6 25 1 3 -4 19 -11 36 -15 23 -4 98
-73 296 -270 l266 -265 -803 -804 c-442 -442 -812 -815 -823 -828 -25 -33 -76
-141 -82 -175 -3 -15 -8 -32 -11 -38 -11 -17 -12 -196 -1 -196 5 0 7 -4 4 -9
-15 -23 47 -167 103 -241 37 -48 131 -130 150 -130 6 0 11 -5 11 -11 0 -5 5
-7 10 -4 6 3 10 1 10 -6 0 -7 3 -9 7 -6 3 4 11 3 17 -2 27 -22 136 -45 224
-46 50 0 92 2 92 6 0 4 8 6 17 5 29 -5 183 59 183 76 0 3 10 10 22 14 12 3
385 370 831 815 l809 810 814 -813 c448 -447 825 -822 837 -833 13 -11 45 -31
72 -45 28 -14 52 -27 55 -30 5 -5 17 -7 92 -14 20 -3 41 -7 47 -10 5 -3 12 0
14 6 4 10 6 10 6 0 1 -8 6 -10 14 -5 6 4 26 8 43 10 32 2 133 43 158 64 51 43
76 68 76 78 0 6 5 11 10 11 10 0 48 77 55 113 2 9 6 21 10 26 21 35 -2 226
-32 262 -7 8 -13 20 -13 26 0 27 -124 156 -878 910 -441 442 -802 805 -802
808 0 3 111 116 246 251 221 221 248 245 272 240 138 -28 349 -24 455 8 25 7
48 11 51 8 4 -3 6 1 6 8 0 7 3 11 6 7 11 -11 203 72 232 100 6 6 21 15 32 18
11 3 20 10 20 14 0 3 14 15 31 25 41 24 189 167 189 182 0 7 4 14 8 16 12 5
86 117 107 163 11 22 22 42 27 45 4 3 9 15 11 25 2 11 10 34 16 50 7 17 14 37
16 45 2 8 8 33 13 55 30 113 38 266 16 327 -27 79 -98 127 -164 113 -21 -5
-94 -71 -250 -226 -121 -120 -226 -219 -233 -220 -7 0 -23 -3 -37 -7 -14 -3
-68 -6 -120 -5 -104 0 -143 12 -242 76 -60 38 -170 146 -162 159 3 4 1 8 -4 8
-5 0 -26 34 -47 76 -33 67 -38 86 -41 162 -5 163 -7 159 221 387 110 110 209
214 221 230 22 34 31 90 14 100 -5 3 -8 10 -5 15 8 13 -70 75 -110 88 -58 17
-221 7 -320 -20 -22 -6 -47 -12 -55 -13 -25 -4 -195 -78 -198 -87 -2 -4 -8 -8
-13 -8 -9 0 -66 -36 -79 -50 -3 -3 -17 -13 -31 -22 -29 -18 -123 -98 -116 -98
3 0 -16 -22 -42 -49 -25 -26 -47 -54 -49 -60 -1 -7 -11 -21 -21 -32 -10 -11
-24 -32 -32 -47 -8 -15 -16 -29 -19 -32 -22 -22 -87 -183 -106 -261 -35 -147
-37 -276 -9 -456 5 -31 -6 -43 -239 -278 -135 -135 -247 -245 -250 -245 -3 0
-120 114 -259 254 -161 161 -257 265 -262 283 -13 46 -15 56 -18 90 -1 18 -4
33 -7 33 -4 0 -5 15 -3 33 1 17 5 66 7 107 4 84 12 130 27 175 21 59 73 155
101 185 15 17 28 34 28 37 0 13 125 126 189 170 36 26 69 52 73 58 4 5 8 7 8
2 0 -4 15 0 33 10 17 9 35 16 40 15 4 -1 7 3 7 10 0 6 3 9 6 6 3 -4 20 -2 37
4 18 5 37 10 42 11 6 2 16 6 23 10 6 5 12 4 12 -2 0 -6 6 -8 14 -5 8 3 29 7
48 9 18 2 33 4 33 5 0 1 56 3 125 5 69 1 127 3 130 5 3 1 12 2 21 1 9 -1 28
12 42 28 23 28 24 34 14 62 -8 20 -26 38 -50 51 -53 27 -216 78 -249 78 -15 0
-29 4 -32 8 -2 4 -24 9 -47 11 -23 1 -49 6 -58 10 -15 8 -325 13 -333 6z
m-1398 -4124 c41 -17 97 -79 107 -116 1 -5 6 -27 12 -48 5 -20 5 -39 1 -42 -5
-3 -7 -14 -5 -25 2 -11 0 -20 -5 -20 -5 0 -6 -7 -3 -17 4 -11 3 -14 -5 -9 -7
4 -12 1 -12 -8 0 -17 -63 -86 -82 -90 -7 -2 -25 -8 -40 -14 -15 -6 -44 -10
-66 -8 -40 3 -132 36 -132 47 0 3 -11 19 -25 35 -14 16 -25 32 -25 37 0 16 -2
22 -10 32 -12 15 -9 108 4 124 6 8 9 15 6 15 -2 1 4 15 14 31 18 31 83 82 98
78 4 -2 8 2 8 8 0 5 3 8 8 6 4 -3 16 -1 27 3 21 7 85 -2 125 -19z"/>
</g>
</svg>
